<svg xmlns="http://www.w3.org/2000/svg" viewBox="0 0 38.82 55.23"><defs><style>.cls-1{fill:#680200;}.cls-2{fill:#930a00;}.cls-3{fill:#f2bd14;}.cls-4{fill:#fff;}</style></defs><title>preguntaRecurso 4</title><g id="Capa_2" data-name="Capa 2"><g id="Capa_6" data-name="Capa 6"><path class="cls-1" d="M38.82,35.82a19.41,19.41,0,1,1-26.54-18V12.54H26.54v5.23A19.44,19.44,0,0,1,38.82,35.82Z"/><path class="cls-2" d="M33.53,30.53A19.4,19.4,0,0,1,3.3,46.64a19.4,19.4,0,0,1,9-28.87V12.54h9.1a19.35,19.35,0,0,1,5.16,3.08v2.15a19.2,19.2,0,0,1,3.7,1.95A19.27,19.27,0,0,1,33.53,30.53Z"/><path class="cls-3" d="M26.33,6.58H24.56v-3A3.61,3.61,0,0,0,21,0H17.88a3.61,3.61,0,0,0-3.61,3.61v3H12.55A2.59,2.59,0,0,0,10,9.18v3.91h.26l1.44,1.66,1.09-1.27,1.1,1.27L15,13.48,16,14.75l1.1-1.27,1.1,1.27,1.09-1.27,1.1,1.27,1.1-1.27,1.1,1.27,1.09-1.27,1.1,1.27,1.1-1.27L27,14.75l1.43-1.66h.48V9.18A2.59,2.59,0,0,0,26.33,6.58Zm-10.27,0v-3a1.81,1.81,0,0,1,1.82-1.82H21a1.81,1.81,0,0,1,1.81,1.82v3Z"/><rect class="cls-4" x="7.38" y="29.97" width="4.22" height="13.62"/><path class="cls-4" d="M9.47,28.18A2.52,2.52,0,1,0,7,25.67,2.5,2.5,0,0,0,9.47,28.18Z"/><path class="cls-4" d="M18.33,36.44c0-1.92.88-3.06,2.57-3.06s2.3,1.1,2.3,3.06v7.15h4.19V35c0-3.65-2.06-5.41-4.95-5.41a4.76,4.76,0,0,0-4.11,2.25V30h-4V43.59h4Z"/></g></g></svg>