<svg xmlns="http://www.w3.org/2000/svg" viewBox="0 0 38.82 55.23"><defs><style>.cls-1{fill:#680200;}.cls-2{fill:#930a00;}.cls-3{fill:#f2bd14;}.cls-4{fill:#fff;}</style></defs><title>preguntaRecurso 3</title><g id="Capa_2" data-name="Capa 2"><g id="Capa_6" data-name="Capa 6"><path class="cls-1" d="M38.82,35.82a19.41,19.41,0,1,1-26.54-18V12.54H26.54v5.23A19.44,19.44,0,0,1,38.82,35.82Z"/><path class="cls-2" d="M33.53,30.53A19.4,19.4,0,0,1,3.3,46.64a19.4,19.4,0,0,1,9-28.87V12.54h9.1a19.35,19.35,0,0,1,5.16,3.08v2.15a19.2,19.2,0,0,1,3.7,1.95A19.27,19.27,0,0,1,33.53,30.53Z"/><path class="cls-3" d="M26.33,6.58H24.56v-3A3.61,3.61,0,0,0,21,0H17.88a3.61,3.61,0,0,0-3.61,3.61v3H12.55A2.59,2.59,0,0,0,10,9.18v3.91h.26l1.44,1.66,1.09-1.27,1.1,1.27L15,13.48,16,14.75l1.1-1.27,1.1,1.27,1.09-1.27,1.1,1.27,1.1-1.27,1.1,1.27,1.09-1.27,1.1,1.27,1.1-1.27L27,14.75l1.43-1.66h.48V9.18A2.59,2.59,0,0,0,26.33,6.58Zm-10.27,0v-3a1.81,1.81,0,0,1,1.82-1.82H21a1.81,1.81,0,0,1,1.81,1.82v3Z"/><path class="cls-4" d="M19.58,30.55a6.06,6.06,0,0,1,0,8.57h0L16.9,41.81a6.06,6.06,0,0,1-8.57-8.58l1.48-1.48a.64.64,0,0,1,1.09.43,7.32,7.32,0,0,0,.38,2.1.64.64,0,0,1-.15.66l-.52.53a2.87,2.87,0,1,0,4,4.08l2.68-2.68a2.87,2.87,0,0,0,0-4.06,2.72,2.72,0,0,0-.42-.34.67.67,0,0,1-.27-.5,1.56,1.56,0,0,1,.46-1.19l.84-.84a.65.65,0,0,1,.83-.07,5.84,5.84,0,0,1,.81.68Zm5.63-5.62a6.07,6.07,0,0,0-8.58,0L14,27.61h0a6.07,6.07,0,0,0,0,8.57,5.92,5.92,0,0,0,.82.68.63.63,0,0,0,.82-.07l.84-.84a1.6,1.6,0,0,0,.47-1.18.65.65,0,0,0-.28-.51,2.29,2.29,0,0,1-.41-.34,2.86,2.86,0,0,1,0-4.06l2.68-2.68a2.87,2.87,0,1,1,4,4.08l-.53.53a.64.64,0,0,0-.15.66,7.34,7.34,0,0,1,.39,2.1.64.64,0,0,0,1.09.43l1.48-1.48a6.08,6.08,0,0,0,0-8.58Z"/></g></g></svg>