<?xml version="1.0" encoding="utf-8"?>
<!-- Generator: Adobe Illustrator 25.0.1, SVG Export Plug-In . SVG Version: 6.00 Build 0)  -->
<svg version="1.1" id="Capa_1" xmlns="http://www.w3.org/2000/svg" xmlns:xlink="http://www.w3.org/1999/xlink" x="0px" y="0px"
	 viewBox="0 0 38.8 55.2" style="enable-background:new 0 0 38.8 55.2;" xml:space="preserve">
<style type="text/css">
	.st0{fill:#680200;}
	.st1{fill:#930A00;}
	.st2{fill:#F2BD14;}
	.st3{fill:#FFFFFF;}
</style>
<g>
	<path class="st0" d="M38.8,35.8c0,10.7-8.7,19.4-19.4,19.4c-6.7,0-12.6-3.4-16.1-8.6C1.2,43.6,0,39.8,0,35.8
		c0-8.2,5.1-15.2,12.3-18v-5.2h14.3v5.2c1.3,0.5,2.5,1.2,3.7,1.9C35.4,23.2,38.8,29.1,38.8,35.8z"/>
	<path class="st1" d="M33.5,30.5c0,10.7-8.7,19.4-19.4,19.4c-4,0-7.7-1.2-10.8-3.3C1.2,43.6,0,39.8,0,35.8c0-8.2,5.1-15.2,12.3-18
		v-5.2h9.1c1.9,0.8,3.6,1.8,5.2,3.1v2.1c1.3,0.5,2.5,1.2,3.7,1.9C32.3,22.8,33.5,26.5,33.5,30.5z"/>
	<path class="st2" d="M26.3,6.6h-1.8v-3c0-2-1.6-3.6-3.6-3.6h-3.1c-2,0-3.6,1.6-3.6,3.6v3h-1.7c-1.4,0-2.6,1.2-2.6,2.6v3.4v0.2v0.3
		h0.3l1.4,1.7l1.1-1.3l1.1,1.3l1.1-1.3l1.1,1.3l1.1-1.3l1.1,1.3l1.1-1.3l1.1,1.3l1.1-1.3l1.1,1.3l1.1-1.3l1.1,1.3l1.1-1.3l1.1,1.3
		l1.4-1.7h0.5V9.2C28.9,7.7,27.8,6.6,26.3,6.6z M16.1,6.6v-3c0-1,0.8-1.8,1.8-1.8H21c1,0,1.8,0.8,1.8,1.8v3H16.1z"/>
	<path class="st3" d="M25.6,27.6c-1.9-1.9-4.3-2.9-7-2.9c-5.4,0-9.9,4.4-9.9,9.9c0,1.7,0.5,3.4,1.3,4.9l-1.4,5.1l5.2-1.4
		c1.4,0.8,3.1,1.2,4.7,1.2h0c5.4,0,10-4.4,10-9.9C28.6,31.9,27.5,29.4,25.6,27.6z M18.6,42.7c-1.5,0-2.9-0.4-4.2-1.1l-0.3-0.2
		L11,42.2l0.8-3l-0.2-0.3c-0.8-1.3-1.3-2.8-1.3-4.4c0-4.5,3.7-8.2,8.2-8.2c2.2,0,4.3,0.9,5.8,2.4s2.5,3.6,2.5,5.8
		C26.9,39.1,23.2,42.7,18.6,42.7z M23.1,36.6c-0.2-0.1-1.5-0.7-1.7-0.8c-0.2-0.1-0.4-0.1-0.6,0.1c-0.2,0.2-0.6,0.8-0.8,1
		c-0.1,0.2-0.3,0.2-0.5,0.1c-1.5-0.7-2.4-1.3-3.4-2.9c-0.3-0.4,0.3-0.4,0.7-1.3c0.1-0.2,0-0.3,0-0.4s-0.6-1.3-0.8-1.8
		C16,29.9,15.8,30,15.6,30c-0.1,0-0.3,0-0.5,0c-0.2,0-0.4,0.1-0.7,0.3c-0.2,0.2-0.9,0.8-0.9,2.1c0,1.2,0.9,2.4,1,2.6
		c0.1,0.2,1.7,2.7,4.2,3.7c1.6,0.7,2.2,0.7,3,0.6c0.5-0.1,1.5-0.6,1.7-1.2c0.2-0.6,0.2-1.1,0.1-1.2C23.5,36.8,23.4,36.7,23.1,36.6z"
		/>
</g>
</svg>
